# xmcd
#
# Track frame offsets:
#	150
#	22538
#	43976
#	58442
#	73849
#	88024
#	102577
#	123869
#
# Disc length: 1833 seconds
#
# Revision: 1
# Processed by: cddbd v1.5.1PL0 Copyright (c) Steve Scherf et al.
# Submitted via: audiograbber 1.83.01
#
DISCID=6e072708
DTITLE=Big Bill Broonzy - Baby Please Don't Go (Grammercy Records)
DYEAR=2003
DGENRE=Blues
TTITLE0=Ridin' On Down
TTITLE1=Feelin' Lowdown
TTITLE2=Baby Please Don't Go
TTITLE3=In The Evenin'
TTITLE4=All I Got Belongs To You
TTITLE5=Treat Everybody Right
TTITLE6=I Got Up One Morning Blues
TTITLE7=See See Rider
EXTD=2003 Grammercy Records
EXTT0=
EXTT1=
EXTT2=
EXTT3=
EXTT4=
EXTT5=
EXTT6=
EXTT7=
PLAYORDER=
